<svg width="16" height="16" viewBox="0 0 16 16" fill="none" xmlns="http://www.w3.org/2000/svg">
<path fill-rule="evenodd" clip-rule="evenodd" d="M14 6.65694C14 5.91967 13.403 5.32199 12.6667 5.32199H10.3C10.5373 4.91703 10.6638 4.45656 10.6667 3.98704H12.6667C12.6667 3.24977 12.0697 2.65209 11.3333 2.65209H10.3C9.82125 1.83515 8.94603 1.33331 8 1.33331C7.05397 1.33331 6.17875 1.83515 5.7 2.65209H4C2.89543 2.65209 2 3.54861 2 4.65452V13.3317C2 14.069 2.59695 14.6666 3.33333 14.6666H12.6667C13.403 14.6666 14 14.069 14 13.3317V6.65694ZM8 2.65104C8.73638 2.65104 9.33333 3.24872 9.33333 3.98599C9.33333 4.72327 8.73638 5.32094 8 5.32094C7.26362 5.32094 6.66667 4.72327 6.66667 3.98599C6.66667 3.24872 7.26362 2.65104 8 2.65104ZM4 3.98706C3.63181 3.98706 3.33333 4.2859 3.33333 4.65454C3.33333 5.02317 3.63181 5.32201 4 5.32201H5.7C5.46266 4.91705 5.33619 4.45658 5.33333 3.98706H4ZM12.6667 11.997H8C7.63181 11.997 7.33333 11.6982 7.33333 11.3296V8.65966C7.33333 8.29103 7.63181 7.99219 8 7.99219H12.6667V11.997ZM9 10.6631C8.81591 10.6631 8.66667 10.5137 8.66667 10.3293V9.66186C8.66667 9.47754 8.81591 9.32813 9 9.32813H9.66667C9.85076 9.32813 10 9.47754 10 9.66186V10.3293C10 10.5137 9.85076 10.6631 9.66667 10.6631H9Z" fill="#599EF7"/>
</svg>
