<svg width="16" height="16" viewBox="0 0 16 16" fill="none" xmlns="http://www.w3.org/2000/svg">
<path fill-rule="evenodd" clip-rule="evenodd" d="M9.76009 7.10665L13.0334 7.46665C13.2044 7.48383 13.3343 7.62816 13.3334 7.79998V8.19998C13.3343 8.37181 13.2044 8.51614 13.0334 8.53332L9.76009 8.89332C9.60621 8.90865 9.46245 8.97699 9.35342 9.08665L9.10009 9.35332C8.99287 9.46332 8.92693 9.60697 8.91342 9.75998L8.52675 14.36C8.51282 14.5336 8.36758 14.6672 8.19342 14.6666H7.80675C7.63259 14.6672 7.48735 14.5336 7.47342 14.36L7.08675 9.75998C7.07324 9.60697 7.0073 9.46332 6.90009 9.35332L6.64675 9.08665C6.53772 8.97699 6.39396 8.90865 6.24009 8.89332L2.96675 8.53332C2.79579 8.51614 2.66589 8.37181 2.66675 8.19998V7.79998C2.66589 7.62816 2.79579 7.48383 2.96675 7.46665L6.24009 7.10665C6.39396 7.09132 6.53772 7.02298 6.64675 6.91332L6.90009 6.64665C7.0073 6.53665 7.07324 6.393 7.08675 6.23998L7.47342 1.63998C7.48735 1.46638 7.63259 1.33276 7.80675 1.33331H8.19342C8.36758 1.33276 8.51282 1.46638 8.52675 1.63998L8.91342 6.23998C8.92693 6.393 8.99287 6.53665 9.10009 6.64665L9.35342 6.91332C9.46245 7.02298 9.60621 7.09132 9.76009 7.10665ZM10.8467 5.58L10.42 5.15333C10.3505 5.09016 10.3109 5.00059 10.3109 4.90667C10.3109 4.81274 10.3505 4.72318 10.42 4.66L11.46 3.8C11.5891 3.68456 11.7843 3.68456 11.9133 3.8L12.1867 4.07333C12.3021 4.2024 12.3021 4.3976 12.1867 4.52667L11.3333 5.56C11.2731 5.62998 11.1866 5.67186 11.0943 5.67565C11.0021 5.67944 10.9124 5.64481 10.8467 5.58ZM4.66662 10.44L3.79996 11.46C3.68452 11.5891 3.68452 11.7843 3.79996 11.9134L4.07329 12.1867C4.20236 12.3021 4.39756 12.3021 4.52662 12.1867L5.55996 11.3334C5.62946 11.2702 5.66909 11.1806 5.66909 11.0867C5.66909 10.9928 5.62946 10.9032 5.55996 10.84L5.13329 10.4134C4.99652 10.2934 4.78884 10.3053 4.66662 10.44ZM11.46 12.1934L10.4399 11.3334C10.3052 11.2111 10.2933 11.0035 10.4133 10.8667L10.8399 10.44C10.9031 10.3705 10.9927 10.3309 11.0866 10.3309C11.1805 10.3309 11.2701 10.3705 11.3333 10.44L12.1866 11.4667C12.3021 11.5958 12.3021 11.791 12.1866 11.92L11.9133 12.1934C11.7842 12.3088 11.589 12.3088 11.46 12.1934ZM5.55997 4.66667L4.53997 3.8C4.41091 3.68456 4.2157 3.68456 4.08664 3.8L3.8133 4.07333C3.69787 4.2024 3.69787 4.3976 3.8133 4.52667L4.66664 5.56C4.72981 5.62951 4.81938 5.66913 4.9133 5.66913C5.00723 5.66913 5.0968 5.62951 5.15997 5.56L5.58664 5.13333C5.70658 4.99656 5.69471 4.78889 5.55997 4.66667Z" fill="#EA7A2E"/>
</svg>
