<svg width="24" height="24" viewBox="0 0 24 24" fill="none" xmlns="http://www.w3.org/2000/svg">
<path d="M21.4365 11.5H21.0595V8.125C21.0589 7.69419 20.8876 7.28117 20.5829 6.97654C20.2783 6.6719 19.8653 6.50053 19.4345 6.5H18.8095V6.125C18.8095 5.69402 18.6383 5.2807 18.3335 4.97595C18.0288 4.67121 17.6155 4.5 17.1845 4.5C16.7535 4.5 16.3402 4.67121 16.0354 4.97595C15.7307 5.2807 15.5595 5.69402 15.5595 6.125V11.5H8.44148V6.125C8.44148 5.69402 8.27027 5.2807 7.96552 4.97595C7.66078 4.67121 7.24745 4.5 6.81648 4.5C6.3855 4.5 5.97217 4.67121 5.66743 4.97595C5.36268 5.2807 5.19148 5.69402 5.19148 6.125V6.5H4.56648C4.13566 6.50053 3.72264 6.6719 3.41801 6.97654C3.11338 7.28117 2.94201 7.69419 2.94148 8.125V11.5H2.56348C2.43087 11.5 2.30369 11.5527 2.20992 11.6464C2.11616 11.7402 2.06348 11.8674 2.06348 12C2.06348 12.1326 2.11616 12.2598 2.20992 12.3536C2.30369 12.4473 2.43087 12.5 2.56348 12.5H2.94148V15.875C2.94201 16.3058 3.11338 16.7188 3.41801 17.0235C3.72264 17.3281 4.13566 17.4995 4.56648 17.5H5.19148V17.875C5.19148 18.306 5.36268 18.7193 5.66743 19.024C5.97217 19.3288 6.3855 19.5 6.81648 19.5C7.24745 19.5 7.66078 19.3288 7.96552 19.024C8.27027 18.7193 8.44148 18.306 8.44148 17.875V12.5H15.5595V17.875C15.5595 18.0884 15.6015 18.2997 15.6832 18.4969C15.7648 18.694 15.8845 18.8732 16.0354 19.024C16.1863 19.1749 16.3655 19.2946 16.5626 19.3763C16.7598 19.458 16.9711 19.5 17.1845 19.5C17.3979 19.5 17.6092 19.458 17.8063 19.3763C18.0035 19.2946 18.1826 19.1749 18.3335 19.024C18.4844 18.8732 18.6041 18.694 18.6858 18.4969C18.7674 18.2997 18.8095 18.0884 18.8095 17.875V17.5H19.4345C19.8653 17.4995 20.2783 17.3281 20.5829 17.0235C20.8876 16.7188 21.0589 16.3058 21.0595 15.875V12.5H21.4365C21.5691 12.5 21.6963 12.4473 21.79 12.3536C21.8838 12.2598 21.9365 12.1326 21.9365 12C21.9365 11.8674 21.8838 11.7402 21.79 11.6464C21.6963 11.5527 21.5691 11.5 21.4365 11.5ZM4.56648 16.5C4.4008 16.4997 4.24198 16.4338 4.12483 16.3167C4.00767 16.1995 3.94174 16.0407 3.94148 15.875V8.125C3.94174 7.95932 4.00767 7.8005 4.12483 7.68335C4.24198 7.5662 4.4008 7.50026 4.56648 7.5H5.19148V16.5H4.56648ZM7.44148 17.875C7.44148 18.0408 7.37563 18.1997 7.25842 18.3169C7.14121 18.4342 6.98224 18.5 6.81648 18.5C6.65072 18.5 6.49174 18.4342 6.37453 18.3169C6.25732 18.1997 6.19148 18.0408 6.19148 17.875V6.125C6.19148 5.95924 6.25732 5.80027 6.37453 5.68306C6.49174 5.56585 6.65072 5.5 6.81648 5.5C6.98224 5.5 7.14121 5.56585 7.25842 5.68306C7.37563 5.80027 7.44148 5.95924 7.44148 6.125V17.875ZM17.8095 17.875C17.8095 18.0408 17.7436 18.1997 17.6264 18.3169C17.5092 18.4342 17.3502 18.5 17.1845 18.5C17.0187 18.5 16.8597 18.4342 16.7425 18.3169C16.6253 18.1997 16.5595 18.0408 16.5595 17.875V6.125C16.5595 5.95924 16.6253 5.80027 16.7425 5.68306C16.8597 5.56585 17.0187 5.5 17.1845 5.5C17.3502 5.5 17.5092 5.56585 17.6264 5.68306C17.7436 5.80027 17.8095 5.95924 17.8095 6.125V17.875ZM20.0595 15.875C20.0592 16.0407 19.9933 16.1995 19.8761 16.3167C19.759 16.4338 19.6002 16.4997 19.4345 16.5H18.8095V7.5H19.4345C19.6002 7.50026 19.759 7.5662 19.8761 7.68335C19.9933 7.8005 20.0592 7.95932 20.0595 8.125V15.875Z" fill="currentColor"/>
</svg>
