<svg width="20" height="20" viewBox="0 0 20 20" fill="none" xmlns="http://www.w3.org/2000/svg">
<path d="M19.14 3.99C19.18 3.89 19.18 3.78 19.14 3.68C19.12 3.64 19.1 3.61 19.07 3.58C19.07 3.58 19.07 3.56 19.05 3.55H19.04C19.01 3.52 18.97 3.49 18.92 3.47C18.87 3.45 18.82 3.44 18.76 3.44H16.29L17.12 2.61C17.28 2.45 17.28 2.19 17.12 2.03C16.96 1.87 16.7 1.87 16.54 2.03L15.73 2.84V0.4C15.73 0.35 15.72 0.29 15.7 0.24C15.68 0.2 15.66 0.17 15.63 0.14C15.63 0.14 15.63 0.12 15.61 0.11H15.6C15.57 0.08 15.53 0.05 15.48 0.03C15.38 -0.01 15.27 -0.01 15.17 0.03C15.13 0.05 15.09 0.08 15.05 0.11H15.04L12.43 2.72C12.43 2.72 12.37 2.8 12.35 2.84C12.33 2.9 12.32 2.96 12.32 3.02V4.67C11.06 3.82 9.54 3.32 7.91 3.32C3.55 3.32 0 6.87 0 11.23C0 15.59 3.55 19.14 7.91 19.14C12.27 19.14 15.82 15.59 15.82 11.23C15.82 9.61 15.33 8.1 14.49 6.84H16.15C16.15 6.84 16.16 6.84 16.17 6.84C16.27 6.84 16.38 6.8 16.46 6.72L19.07 4.11C19.07 4.11 19.08 4.09 19.09 4.08C19.12 4.05 19.14 4.01 19.16 3.98L19.14 3.99ZM13.13 3.18L14.92 1.39V3.64L13.19 5.37C13.19 5.37 13.15 5.33 13.13 5.32V3.18ZM14.99 11.24C14.99 15.15 11.81 18.33 7.9 18.33C3.99 18.33 0.81 15.15 0.81 11.24C0.81 7.33 3.99 4.15 7.9 4.15C9.57 4.15 11.1 4.73 12.31 5.7V6.26L11.29 7.28C10.37 6.5 9.2 6 7.9 6C5.01 6 2.66 8.35 2.66 11.24C2.66 14.13 5.01 16.48 7.9 16.48C10.79 16.48 13.14 14.13 13.14 11.24C13.14 9.94 12.65 8.77 11.86 7.85L12.86 6.85H13.46C14.41 8.06 14.99 9.58 14.99 11.24ZM9.61 11.24C9.61 12.18 8.84 12.95 7.9 12.95C6.96 12.95 6.19 12.18 6.19 11.24C6.19 10.3 6.96 9.53 7.9 9.53C8.22 9.53 8.52 9.63 8.78 9.78L7.61 10.95C7.45 11.11 7.45 11.37 7.61 11.53C7.69 11.61 7.79 11.65 7.9 11.65C8.01 11.65 8.11 11.61 8.19 11.53L9.36 10.36C9.52 10.62 9.61 10.92 9.61 11.24ZM9.37 9.19C8.95 8.89 8.45 8.71 7.9 8.71C6.5 8.71 5.37 9.85 5.37 11.24C5.37 12.63 6.51 13.77 7.9 13.77C9.29 13.77 10.43 12.64 10.43 11.24C10.43 10.69 10.25 10.18 9.95 9.77L11.29 8.43C11.93 9.2 12.33 10.17 12.33 11.24C12.33 13.68 10.34 15.67 7.9 15.67C5.46 15.67 3.47 13.68 3.47 11.24C3.47 8.8 5.46 6.81 7.9 6.81C8.97 6.81 9.94 7.21 10.71 7.85L9.37 9.19ZM13.76 5.95L15.47 4.24H17.78L15.99 6.03H13.85C13.85 6.03 13.8 5.97 13.77 5.94L13.76 5.95Z" fill="currentColor"/>
</svg>
