<svg width="16" height="16" viewBox="0 0 16 16" fill="none" xmlns="http://www.w3.org/2000/svg">
<path fill-rule="evenodd" clip-rule="evenodd" d="M8.66675 2.66669H7.33342C6.96523 2.66669 6.66675 2.96516 6.66675 3.33335V12.6667C6.66675 13.0349 6.96523 13.3334 7.33342 13.3334H8.66675C9.03494 13.3334 9.33342 13.0349 9.33342 12.6667V3.33335C9.33342 2.96516 9.03494 2.66669 8.66675 2.66669ZM5.33341 8.66669V12.6667C5.33341 13.0349 5.03494 13.3334 4.66675 13.3334H3.33341C2.96522 13.3334 2.66675 13.0349 2.66675 12.6667V8.66669C2.66675 8.2985 2.96522 8.00002 3.33341 8.00002H4.66675C5.03494 8.00002 5.33341 8.2985 5.33341 8.66669ZM11.3334 5.33335H12.6667C13.0349 5.33335 13.3334 5.63183 13.3334 6.00002V12.6667C13.3334 13.0349 13.0349 13.3334 12.6667 13.3334H11.3334C10.9652 13.3334 10.6667 13.0349 10.6667 12.6667V6.00002C10.6667 5.63183 10.9652 5.33335 11.3334 5.33335Z" fill="#7A71EF"/>
</svg>
