<svg width="24" height="24" viewBox="0 0 24 24" fill="none" xmlns="http://www.w3.org/2000/svg">
<path d="M16.5 21.9375H7.5C6.83696 21.9375 6.20107 21.6741 5.73223 21.2053C5.26339 20.7364 5 20.1005 5 19.4375V4.5625C5 3.89946 5.26339 3.26357 5.73223 2.79473C6.20107 2.32589 6.83696 2.0625 7.5 2.0625H16.5C17.163 2.0625 17.7989 2.32589 18.2678 2.79473C18.7366 3.26357 19 3.89946 19 4.5625V19.4375C19 20.1005 18.7366 20.7364 18.2678 21.2053C17.7989 21.6741 17.163 21.9375 16.5 21.9375ZM7.5 3.0625C7.10218 3.0625 6.72064 3.22054 6.43934 3.50184C6.15804 3.78314 6 4.16468 6 4.5625V19.4375C6 19.8353 6.15804 20.2169 6.43934 20.4982C6.72064 20.7795 7.10218 20.9375 7.5 20.9375H16.5C16.8978 20.9375 17.2794 20.7795 17.5607 20.4982C17.842 20.2169 18 19.8353 18 19.4375V4.5625C18 4.16468 17.842 3.78314 17.5607 3.50184C17.2794 3.22054 16.8978 3.0625 16.5 3.0625H7.5Z" fill="currentColor"/>
<path d="M14.5 9.7575H9.5C9.10218 9.7575 8.72064 9.59946 8.43934 9.31816C8.15804 9.03685 8 8.65532 8 8.2575V6.5625C8 6.16468 8.15804 5.78314 8.43934 5.50184C8.72064 5.22054 9.10218 5.0625 9.5 5.0625H14.5C14.8978 5.0625 15.2794 5.22054 15.5607 5.50184C15.842 5.78314 16 6.16468 16 6.5625V8.2575C16 8.65532 15.842 9.03685 15.5607 9.31816C15.2794 9.59946 14.8978 9.7575 14.5 9.7575ZM9.5 6.0625C9.36739 6.0625 9.24021 6.11518 9.14645 6.20895C9.05268 6.30271 9 6.42989 9 6.5625V8.2575C9 8.39011 9.05268 8.51728 9.14645 8.61105C9.24021 8.70482 9.36739 8.7575 9.5 8.7575H14.5C14.6326 8.7575 14.7598 8.70482 14.8536 8.61105C14.9473 8.51728 15 8.39011 15 8.2575V6.5625C15 6.42989 14.9473 6.30271 14.8536 6.20895C14.7598 6.11518 14.6326 6.0625 14.5 6.0625H9.5Z" fill="currentColor"/>
<path d="M12 12.2578C12.4142 12.2578 12.75 11.922 12.75 11.5078C12.75 11.0936 12.4142 10.7578 12 10.7578C11.5858 10.7578 11.25 11.0936 11.25 11.5078C11.25 11.922 11.5858 12.2578 12 12.2578Z" fill="currentColor"/>
<path d="M15.25 12.2578C15.6642 12.2578 16 11.922 16 11.5078C16 11.0936 15.6642 10.7578 15.25 10.7578C14.8358 10.7578 14.5 11.0936 14.5 11.5078C14.5 11.922 14.8358 12.2578 15.25 12.2578Z" fill="currentColor"/>
<path d="M8.75 12.2578C9.16421 12.2578 9.5 11.922 9.5 11.5078C9.5 11.0936 9.16421 10.7578 8.75 10.7578C8.33579 10.7578 8 11.0936 8 11.5078C8 11.922 8.33579 12.2578 8.75 12.2578Z" fill="currentColor"/>
<path d="M12 15.5977C12.4142 15.5977 12.75 15.2619 12.75 14.8477C12.75 14.4334 12.4142 14.0977 12 14.0977C11.5858 14.0977 11.25 14.4334 11.25 14.8477C11.25 15.2619 11.5858 15.5977 12 15.5977Z" fill="currentColor"/>
<path d="M15.25 15.5977C15.6642 15.5977 16 15.2619 16 14.8477C16 14.4334 15.6642 14.0977 15.25 14.0977C14.8358 14.0977 14.5 14.4334 14.5 14.8477C14.5 15.2619 14.8358 15.5977 15.25 15.5977Z" fill="currentColor"/>
<path d="M8.75 15.5977C9.16421 15.5977 9.5 15.2619 9.5 14.8477C9.5 14.4334 9.16421 14.0977 8.75 14.0977C8.33579 14.0977 8 14.4334 8 14.8477C8 15.2619 8.33579 15.5977 8.75 15.5977Z" fill="currentColor"/>
<path d="M15.25 18.9375C15.6642 18.9375 16 18.6017 16 18.1875C16 17.7733 15.6642 17.4375 15.25 17.4375C14.8358 17.4375 14.5 17.7733 14.5 18.1875C14.5 18.6017 14.8358 18.9375 15.25 18.9375Z" fill="currentColor"/>
<path d="M12.248 18.6875H8.5C8.36739 18.6875 8.24021 18.6348 8.14645 18.5411C8.05268 18.4473 8 18.3201 8 18.1875C8 18.0549 8.05268 17.9277 8.14645 17.8339C8.24021 17.7402 8.36739 17.6875 8.5 17.6875H12.245C12.3776 17.6875 12.5048 17.7402 12.5986 17.8339C12.6923 17.9277 12.745 18.0549 12.745 18.1875C12.745 18.3201 12.6923 18.4473 12.5986 18.5411C12.5048 18.6348 12.3776 18.6875 12.245 18.6875H12.248Z" fill="currentColor"/>
</svg>
