<svg width="24" height="24" viewBox="0 0 24 24" fill="none" xmlns="http://www.w3.org/2000/svg">
<path d="M3.75 5.25C3.75 4.42157 4.42157 3.75 5.25 3.75H8.25C9.07843 3.75 9.75 4.42157 9.75 5.25V8.25C9.75 9.07843 9.07843 9.75 8.25 9.75H5.25C4.42157 9.75 3.75 9.07843 3.75 8.25V5.25Z" stroke="currentColor" stroke-width="1.5" stroke-linecap="round" stroke-linejoin="round"/>
<path d="M14.25 5.25C14.25 4.42157 14.9216 3.75 15.75 3.75H18.75C19.5784 3.75 20.25 4.42157 20.25 5.25V8.25C20.25 9.07843 19.5784 9.75 18.75 9.75H15.75C14.9216 9.75 14.25 9.07843 14.25 8.25V5.25Z" stroke="currentColor" stroke-width="1.5" stroke-linecap="round" stroke-linejoin="round"/>
<path d="M3.75 15.75C3.75 14.9216 4.42157 14.25 5.25 14.25H8.25C9.07843 14.25 9.75 14.9216 9.75 15.75V18.75C9.75 19.5784 9.07843 20.25 8.25 20.25H5.25C4.42157 20.25 3.75 19.5784 3.75 18.75V15.75Z" stroke="currentColor" stroke-width="1.5" stroke-linecap="round" stroke-linejoin="round"/>
<path d="M14.25 15.75C14.25 14.9216 14.9216 14.25 15.75 14.25H18.75C19.5784 14.25 20.25 14.9216 20.25 15.75V18.75C20.25 19.5784 19.5784 20.25 18.75 20.25H15.75C14.9216 20.25 14.25 19.5784 14.25 18.75V15.75Z" stroke="currentColor" stroke-width="1.5" stroke-linecap="round" stroke-linejoin="round"/>
</svg>
