<svg width="24" height="24" viewBox="0 0 24 24" fill="none" xmlns="http://www.w3.org/2000/svg">
<path d="M19.4404 4.0625H4.5654C3.9024 4.0625 3.2665 4.3259 2.7977 4.7947C2.3288 5.2636 2.0654 5.8995 2.0654 6.5625V17.4355C2.0654 18.0985 2.3288 18.7344 2.7977 19.2033C3.2665 19.6721 3.9024 19.9355 4.5654 19.9355H19.4404C19.7687 19.9355 20.0938 19.8708 20.3971 19.7452C20.7005 19.6196 20.976 19.4354 21.2082 19.2033C21.4403 18.9711 21.6245 18.6955 21.7501 18.3922C21.8758 18.0889 21.9404 17.7638 21.9404 17.4355V6.5625C21.9404 6.2342 21.8758 5.9091 21.7501 5.6058C21.6245 5.3025 21.4403 5.0269 21.2082 4.7947C20.976 4.5626 20.7005 4.3784 20.3971 4.2528C20.0938 4.1272 19.7687 4.0625 19.4404 4.0625ZM20.9404 13.9985H14.5204C13.99 13.9985 13.4813 13.7878 13.1062 13.4127C12.7311 13.0376 12.5204 12.5289 12.5204 11.9985C12.5204 11.4681 12.7311 10.9594 13.1062 10.5843C13.4813 10.2092 13.99 9.9985 14.5204 9.9985H20.9404V13.9985ZM14.5204 8.9985C13.7248 8.9985 12.9617 9.3146 12.3991 9.8772C11.8365 10.4398 11.5204 11.2029 11.5204 11.9985C11.5204 12.7941 11.8365 13.5572 12.3991 14.1198C12.9617 14.6824 13.7248 14.9985 14.5204 14.9985H20.9404V17.4355C20.9404 17.8333 20.7824 18.2149 20.5011 18.4962C20.2198 18.7775 19.8383 18.9355 19.4404 18.9355H4.5654C4.1676 18.9355 3.7861 18.7775 3.5048 18.4962C3.2235 18.2149 3.0654 17.8333 3.0654 17.4355V6.5625C3.0654 6.1647 3.2235 5.7831 3.5048 5.5018C3.7861 5.2205 4.1676 5.0625 4.5654 5.0625H19.4404C19.8383 5.0625 20.2198 5.2205 20.5011 5.5018C20.7824 5.7831 20.9404 6.1647 20.9404 6.5625V8.9985H14.5204Z" fill="currentColor"/>
<path d="M14.5215 13C15.0738 13 15.5215 12.5523 15.5215 12C15.5215 11.4477 15.0738 11 14.5215 11C13.9692 11 13.5215 11.4477 13.5215 12C13.5215 12.5523 13.9692 13 14.5215 13Z" fill="currentColor"/>
</svg>
